<?xml version="1.0" standalone="no"?>
<!DOCTYPE svg PUBLIC "-//W3C//DTD SVG 20010904//EN"
 "http://www.w3.org/TR/2001/REC-SVG-20010904/DTD/svg10.dtd">
<svg version="1.0" xmlns="http://www.w3.org/2000/svg"
 width="115.000000pt" height="115.000000pt" viewBox="0 0 115.000000 115.000000"
 preserveAspectRatio="xMidYMid meet">
<metadata>
Created by potrace 1.11, written by Peter Selinger 2001-2013
</metadata>
<g transform="translate(0.000000,115.000000) scale(0.100000,-0.100000)"
fill="#000000" stroke="none">
<path d="M555 1092 c-2 -3 -26 -6 -52 -8 -46 -3 -76 -7 -118 -17 -11 -3 -33
-8 -50 -12 -78 -18 -222 -96 -304 -165 l-23 -20 -5 -405 -6 -405 539 5 c664 6
601 3 606 29 1 11 3 189 3 395 0 287 -3 375 -13 379 -7 2 -10 8 -7 13 25 40
-136 139 -292 178 -106 28 -265 46 -278 33z"/>
</g>
</svg>
